{
  "asset": { "version": "2.0", "generator": "THREE.GLTFExporter" },
  "scenes": [{ "name": "AuxScene", "nodes": [3] }],
  "scene": 0,
  "nodes": [
    { "mesh": 0 },
    { "mesh": 1 },
    { "mesh": 2 },
    { "children": [0, 1, 2] }
  ],
  "bufferViews": [
    {
      "buffer": 0,
      "byteOffset": 0,
      "byteLength": 20772,
      "target": 34962,
      "byteStride": 12
    },
    {
      "buffer": 0,
      "byteOffset": 20772,
      "byteLength": 20772,
      "target": 34962,
      "byteStride": 12
    },
    {
      "buffer": 0,
      "byteOffset": 41544,
      "byteLength": 13848,
      "target": 34962,
      "byteStride": 8
    },
    {
      "buffer": 0,
      "byteOffset": 55392,
      "byteLength": 1872,
      "target": 34962,
      "byteStride": 12
    },
    {
      "buffer": 0,
      "byteOffset": 57264,
      "byteLength": 1872,
      "target": 34962,
      "byteStride": 12
    },
    {
      "buffer": 0,
      "byteOffset": 59136,
      "byteLength": 1248,
      "target": 34962,
      "byteStride": 8
    },
    {
      "buffer": 0,
      "byteOffset": 60384,
      "byteLength": 1872,
      "target": 34962,
      "byteStride": 12
    },
    {
      "buffer": 0,
      "byteOffset": 62256,
      "byteLength": 1872,
      "target": 34962,
      "byteStride": 12
    },
    {
      "buffer": 0,
      "byteOffset": 64128,
      "byteLength": 1248,
      "target": 34962,
      "byteStride": 8
    }
  ],
  "buffers": [
    {
      "byteLength": 65376,
      "uri": "data:application/octet-stream;base64,"
    }
  ],
  "accessors": [
    {
      "bufferView": 0,
      "componentType": 5126,
      "count": 1731,
      "max": [7.80186128616333, 3.5298314094543457, 4.421043395996094],
      "min": [-7.801860809326172, -3.548645496368408, -4.421043395996094],
      "type": "VEC3"
    },
    {
      "bufferView": 1,
      "componentType": 5126,
      "count": 1731,
      "max": [1, 1, 0.999969482421875],
      "min": [-1, -1, -0.8465223908424377],
      "type": "VEC3"
    },
    {
      "bufferView": 2,
      "componentType": 5126,
      "count": 1731,
      "max": [1, 1],
      "min": [0, 0],
      "type": "VEC2"
    },
    {
      "bufferView": 3,
      "componentType": 5126,
      "count": 156,
      "max": [-0.23692846298217773, 3.548645496368408, 4.216917514801025],
      "min": [-7.55262565612793, -1.5797463655471802, 3.3151743412017822],
      "type": "VEC3"
    },
    {
      "bufferView": 4,
      "componentType": 5126,
      "count": 156,
      "max": [1, 0.8021180033683777, 0.7071138620376587],
      "min": [-1, -0.9591051936149597, -0.861537516117096],
      "type": "VEC3"
    },
    {
      "bufferView": 5,
      "componentType": 5126,
      "count": 156,
      "max": [1, 0],
      "min": [0, 0],
      "type": "VEC2"
    },
    {
      "bufferView": 6,
      "componentType": 5126,
      "count": 156,
      "max": [7.59188985824585, 3.548645496368408, 4.216917514801025],
      "min": [0.012858875095844269, -1.5797463655471802, 3.3151743412017822],
      "type": "VEC3"
    },
    {
      "bufferView": 7,
      "componentType": 5126,
      "count": 156,
      "max": [1, 0.8021180033683777, 0.7071138620376587],
      "min": [-1, -0.9591051936149597, -0.861537516117096],
      "type": "VEC3"
    },
    {
      "bufferView": 8,
      "componentType": 5126,
      "count": 156,
      "max": [1, 0],
      "min": [0, 0],
      "type": "VEC2"
    }
  ],
  "materials": [
    {
      "pbrMetallicRoughness": {
        "baseColorFactor": [
          0.6038273388475408, 0.6038273388475408, 0.6038273388475408, 1
        ],
        "metallicFactor": 0.5,
        "roughnessFactor": 0.5
      },
      "name": "mat0"
    },
    {
      "pbrMetallicRoughness": {
        "baseColorFactor": [
          0.00439796973907414, 0.00439796973907414, 0.00439796973907414, 1
        ],
        "metallicFactor": 0.5,
        "roughnessFactor": 0.5
      },
      "name": "mat1"
    },
    {
      "pbrMetallicRoughness": {
        "baseColorFactor": [
          0.6038273388475408, 0.6038273388475408, 0.6038273388475408, 1
        ],
        "metallicFactor": 0.5,
        "roughnessFactor": 0.5
      },
      "name": "mat2"
    }
  ],
  "meshes": [
    {
      "primitives": [
        {
          "mode": 4,
          "attributes": { "POSITION": 0, "NORMAL": 1, "TEXCOORD_0": 2 },
          "material": 0
        },
        {
          "mode": 4,
          "attributes": { "POSITION": 0, "NORMAL": 1, "TEXCOORD_0": 2 },
          "material": 1
        }
      ]
    },
    {
      "primitives": [
        {
          "mode": 4,
          "attributes": { "POSITION": 3, "NORMAL": 4, "TEXCOORD_0": 5 },
          "material": 0
        },
        {
          "mode": 4,
          "attributes": { "POSITION": 3, "NORMAL": 4, "TEXCOORD_0": 5 },
          "material": 2
        }
      ]
    },
    {
      "primitives": [
        {
          "mode": 4,
          "attributes": { "POSITION": 6, "NORMAL": 7, "TEXCOORD_0": 8 },
          "material": 0
        },
        {
          "mode": 4,
          "attributes": { "POSITION": 6, "NORMAL": 7, "TEXCOORD_0": 8 },
          "material": 2
        }
      ]
    }
  ]
}
