{  "asset": {    "version": "2.0",    "generator": "THREE.GLTFExporter"  },  "scenes": [    {      "name": "AuxScene",      "nodes": [        5      ]    }  ],  "scene": 0,  "nodes": [    {      "mesh": 0    },    {      "mesh": 1    },    {      "mesh": 2    },    {      "mesh": 3    },    {      "mesh": 4    },    {      "children": [        0,        1,        2,        3,        4      ]    }  ],  "bufferViews": [    {      "buffer": 0,      "byteOffset": 0,      "byteLength": 17856,      "target": 34962,      "byteStride": 12    },    {      "buffer": 0,      "byteOffset": 17856,      "byteLength": 17856,      "target": 34962,      "byteStride": 12    },    {      "buffer": 0,      "byteOffset": 35712,      "byteLength": 11904,      "target": 34962,      "byteStride": 8    },    {      "buffer": 0,      "byteOffset": 47616,      "byteLength": 864,      "target": 34962,      "byteStride": 12    },    {      "buffer": 0,      "byteOffset": 48480,      "byteLength": 864,      "target": 34962,      "byteStride": 12    },    {      "buffer": 0,      "byteOffset": 49344,      "byteLength": 576,      "target": 34962,      "byteStride": 8    },    {      "buffer": 0,      "byteOffset": 49920,      "byteLength": 1728,      "target": 34962,      "byteStride": 12    },    {      "buffer": 0,      "byteOffset": 51648,      "byteLength": 1728,      "target": 34962,      "byteStride": 12    },    {      "buffer": 0,      "byteOffset": 53376,      "byteLength": 1152,      "target": 34962,      "byteStride": 8    },    {      "buffer": 0,      "byteOffset": 54528,      "byteLength": 2376,      "target": 34962,      "byteStride": 12    },    {      "buffer": 0,      "byteOffset": 56904,      "byteLength": 2376,      "target": 34962,      "byteStride": 12    },    {      "buffer": 0,      "byteOffset": 59280,      "byteLength": 1584,      "target": 34962,      "byteStride": 8    },    {      "buffer": 0,      "byteOffset": 60864,      "byteLength": 360,      "target": 34962,      "byteStride": 12    },    {      "buffer": 0,      "byteOffset": 61224,      "byteLength": 360,      "target": 34962,      "byteStride": 12    },    {      "buffer": 0,      "byteOffset": 61584,      "byteLength": 240,      "target": 34962,      "byteStride": 8    }  ],  "buffers": [    {      "byteLength": 61824,      "uri": "data:application/octet-stream;base64,"    }  ],  "accessors": [    {      "bufferView": 0,      "componentType": 5126,      "count": 1488,      "max": [        5.864508628845215,        4.264837741851807,        -27.97366714477539      ],      "min": [        -5.227656841278076,        -4.901698112487793,        -29.975650787353516      ],      "type": "VEC3"    },    {      "bufferView": 1,      "componentType": 5126,      "count": 1488,      "max": [        0.730246901512146,        1,        0.7071138620376587      ],      "min": [        -0.730246901512146,        -1,        -0.904538094997406      ],      "type": "VEC3"    },    {      "bufferView": 2,      "componentType": 5126,      "count": 1488,      "max": [        1,        1      ],      "min": [        0,        0      ],      "type": "VEC2"    },    {      "bufferView": 3,      "componentType": 5126,      "count": 72,      "max": [        6.318426609039307,        4.681571006774902,        -21.17366600036621      ],      "min": [        -5.681574821472168,        -5.318431377410889,        -27.97366714477539      ],      "type": "VEC3"    },    {      "bufferView": 4,      "componentType": 5126,      "count": 72,      "max": [        0.5773491859436035,        0.5773491859436035,        0.5773491859436035      ],      "min": [        -0.5773491859436035,        -0.5773491859436035,        -0.5773491859436035      ],      "type": "VEC3"    },    {      "bufferView": 5,      "componentType": 5126,      "count": 72,      "max": [        1,        0.9143650531768799      ],      "min": [        0,        0      ],      "type": "VEC2"    },    {      "bufferView": 6,      "componentType": 5126,      "count": 144,      "max": [        6.318427085876465,        4.681570053100586,        -21.573665618896484      ],      "min": [        -5.681575775146484,        -5.3184309005737305,        -27.573665618896484      ],      "type": "VEC3"    },    {      "bufferView": 7,      "componentType": 5126,      "count": 144,      "max": [        0.5773491859436035,        0.5773491859436035,        0.5773491859436035      ],      "min": [        -0.5773491859436035,        -0.5773491859436035,        -0.5773491859436035      ],      "type": "VEC3"    },    {      "bufferView": 8,      "componentType": 5126,      "count": 144,      "max": [        1,        0.9143650531768799      ],      "min": [        0,        0      ],      "type": "VEC2"    },    {      "bufferView": 9,      "componentType": 5126,      "count": 198,      "max": [        5.869417667388916,        4.6815714836120605,        -21.636056900024414      ],      "min": [        -5.232565402984619,        -5.36387825012207,        -24.636056900024414      ],      "type": "VEC3"    },    {      "bufferView": 10,      "componentType": 5126,      "count": 198,      "max": [        0.5773491859436035,        0.809259295463562,        1      ],      "min": [        -0.5773491859436035,        -0.809259295463562,        -0.5773491859436035      ],      "type": "VEC3"    },    {      "bufferView": 11,      "componentType": 5126,      "count": 198,      "max": [        1,        1      ],      "min": [        0,        0      ],      "type": "VEC2"    },    {      "bufferView": 12,      "componentType": 5126,      "count": 30,      "max": [        50,        50,        30      ],      "min": [        -50,        -50,        -30      ],      "type": "VEC3"    },    {      "bufferView": 13,      "componentType": 5126,      "count": 30,      "max": [        0,        0,        1      ],      "min": [        0,        -1,        0      ],      "type": "VEC3"    },    {      "bufferView": 14,      "componentType": 5126,      "count": 30,      "max": [        1,        1      ],      "min": [        0,        0      ],      "type": "VEC2"    }  ],  "materials": [    {      "pbrMetallicRoughness": {        "baseColorFactor": [          0.6038273388475408,          0.6038273388475408,          0.6038273388475408,          1        ],        "metallicFactor": 0.5,        "roughnessFactor": 0.5      },      "doubleSided": true,      "name": "mat0"    },    {      "pbrMetallicRoughness": {        "metallicFactor": 0.5,        "roughnessFactor": 0.5      },      "doubleSided": true,      "name": "mat1"    }  ],  "meshes": [    {      "primitives": [        {          "mode": 4,          "attributes": {            "POSITION": 0,            "NORMAL": 1,            "TEXCOORD_0": 2          },          "material": 0        }      ]    },    {      "primitives": [        {          "mode": 4,          "attributes": {            "POSITION": 3,            "NORMAL": 4,            "TEXCOORD_0": 5          },          "material": 0        }      ]    },    {      "primitives": [        {          "mode": 4,          "attributes": {            "POSITION": 6,            "NORMAL": 7,            "TEXCOORD_0": 8          },          "material": 0        }      ]    },    {      "primitives": [        {          "mode": 4,          "attributes": {            "POSITION": 9,            "NORMAL": 10,            "TEXCOORD_0": 11          },          "material": 0        }      ]    },    {      "primitives": [        {          "mode": 4,          "attributes": {            "POSITION": 12,            "NORMAL": 13,            "TEXCOORD_0": 14          },          "material": 1        }      ]    }  ]}